<?xml version="1.0" encoding="utf-8"?>
<!-- Generator: Adobe Illustrator 28.1.0, SVG Export Plug-In . SVG Version: 6.00 Build 0)  -->
<svg version="1.1" id="Layer_1" xmlns="http://www.w3.org/2000/svg" xmlns:xlink="http://www.w3.org/1999/xlink" x="0px" y="0px"
	 viewBox="0 0 147.2 47.2" style="enable-background:new 0 0 147.2 47.2;" xml:space="preserve">
<style type="text/css">
	.st0{fill:#E31937;}
	.st1{fill:none;stroke:#727372;stroke-width:0.685;}
	.st2{fill:#00A7E1;}
	.st3{fill:#FFFFFF;}
	.st4{fill:none;stroke:#C21F3D;stroke-width:0.423;stroke-miterlimit:3.864;}
	.st5{fill:#C21F3D;}
	.st6{fill:none;stroke:#FFFFFF;stroke-width:0.123;stroke-miterlimit:3.864;}
	.st7{fill:#408740;}
	.st8{fill:#8DC63F;}
	.st9{fill:#00AFEF;}
	.st10{fill:#EF5BA1;}
	.st11{fill:#F68B1F;}
	.st12{fill:#C71881;}
	.st13{fill:#185FAD;}
	.st14{fill:#3A586E;}
</style>
<g>
	<path class="st0" d="M78.6,27.9v-6.6c0-1.2-0.7-2.7-3.7-2.7h-6.7c-3,0-3.7,1.4-3.7,2.7v6.6c0,1.2,0.7,2.6,3.7,2.6h6.7
		C77.9,30.5,78.6,29.1,78.6,27.9 M99.1,24.6l10.8,9.3h-5.5l-8-6.9l-8,6.9h-5.5l10.8-9.3l-10.8-9.3h5.3l8.3,7l8.3-7h5.3L99.1,24.6z
		 M82.7,28.4c0,3.1-2.5,5.6-7.1,5.6h-8.7c-4.3,0-6.5-2.7-6.5-5.6v-8c0-2.8,2.4-5.3,6.5-5.3h8.7c4.4,0,7.1,2.2,7.1,5.3V28.4z
		 M57.9,26.6H41.6v7.4h-4.1V21c0-3.1,2.4-5.7,6.4-5.7h14v3.6H44.6c-2.2,0-3,1-3,2.7V23h16.3V26.6z M136.8,8.8H10.6v31.5h126.2V8.8z"
		/>
</g>
<g>
</g>
</svg>
