<svg xmlns="http://www.w3.org/2000/svg" viewBox="0 0 234.86 76.83"><defs><style>.cls-1{fill:#283981;}.cls-2{fill:#f39200;}</style></defs><g id="Layer_2" data-name="Layer 2"><g id="Layer_2-2" data-name="Layer 2"><path class="cls-1" d="M.37,73.26a2.92,2.92,0,0,0,.93.18A.78.78,0,0,0,2,73.19a1.92,1.92,0,0,0,.17-1V67.89c-.4,0-1,0-1.82.14l-.2-1.85a35.82,35.82,0,0,1,4.59-.28,11.26,11.26,0,0,1,3.18.35,3,3,0,0,1,1.76,1.28,5,5,0,0,1,.59,2.64v4.9H7.84V70.6a3.17,3.17,0,0,0-.57-2.26,4.44,4.44,0,0,0-2.74-.54v4.54A5.75,5.75,0,0,1,4.36,74a1.57,1.57,0,0,1-.72.82,3,3,0,0,1-1.56.33A6.9,6.9,0,0,1,0,74.82Z"/><path class="cls-1" d="M14.39,66v5.06H11.92V66Z"/><path class="cls-1" d="M22.87,73h1.65v2.07h-9V73h5V70.6a2.86,2.86,0,0,0-.64-2.1,3.24,3.24,0,0,0-2.22-.61,13.26,13.26,0,0,0-2.06.18l-.18-1.89A12.72,12.72,0,0,1,18,65.9a5.48,5.48,0,0,1,3.66,1,4.11,4.11,0,0,1,1.17,3.25Z"/><path class="cls-1" d="M32,66v2.33a11.93,11.93,0,0,1-.11,1.88,3,3,0,0,1-.46,1.11,10.27,10.27,0,0,0-.91,1.47,2.46,2.46,0,0,0-.11.77v1.51H28V73.44a3.31,3.31,0,0,1,.19-1.21,8.71,8.71,0,0,1,.95-1.52,2.54,2.54,0,0,0,.44-1.51V68.07H24.75V62.54h2.37V66Z"/><path class="cls-1" d="M44.08,66v2.33A11.93,11.93,0,0,1,44,70.21a2.87,2.87,0,0,1-.47,1.11,10.84,10.84,0,0,0-.9,1.47,2.46,2.46,0,0,0-.11.77v1.51H40.11V73.44a3.31,3.31,0,0,1,.19-1.21,8.71,8.71,0,0,1,1-1.52,2.54,2.54,0,0,0,.43-1.51V68.07H36.85V62.54h2.38V66Z"/><path class="cls-1" d="M47.44,67.94a3.89,3.89,0,0,1,3.27-2,3,3,0,0,1,2.55,1.27,7,7,0,0,1,1,4.13v3.77H49.59V73h2.23V71.18a7.16,7.16,0,0,0-.31-2.5,1.06,1.06,0,0,0-1-.72,1.51,1.51,0,0,0-1.3.85A10.23,10.23,0,0,0,48.23,72l-.54,3.07H45.15l.42-2a17.67,17.67,0,0,1,.68-2.57L44.73,66H46.9Z"/><path class="cls-1" d="M58.17,71.86A2,2,0,0,0,59,73a3,3,0,0,0,3.89-.57,4.88,4.88,0,0,0,.86-3.14L64,66h2.36l-.29,3.47a10.11,10.11,0,0,1-.7,3.25,4.58,4.58,0,0,1-1.7,1.82,5.46,5.46,0,0,1-3.05.77,4.85,4.85,0,0,1-3.81-1.56,6.83,6.83,0,0,1-1.4-4.69L55.33,66h2.38l0,2.4.09,1.94a1.77,1.77,0,0,0,1-.29,1.49,1.49,0,0,0,.62-.78,5.82,5.82,0,0,0,.16-1.66L59.71,66H62l-.13,2.24a8.6,8.6,0,0,1-.16,1.36,2.83,2.83,0,0,1-.48,1,2.87,2.87,0,0,1-1.12.84A6.1,6.1,0,0,1,58.17,71.86Z"/><path class="cls-1" d="M76,75.07H73.59V70.31a2.77,2.77,0,0,0-.52-1.81,2.45,2.45,0,0,0-1.92-.61,7.08,7.08,0,0,0-1.24.09v7.09h-2.4V66.18a19.59,19.59,0,0,1,3.35-.28,7.31,7.31,0,0,1,3.2.53,3.3,3.3,0,0,1,1.49,1.41A5.27,5.27,0,0,1,76,70.17Z"/><path class="cls-1" d="M84.19,66v5.06H81.72V66Z"/><path class="cls-1" d="M92.68,75.07H90.3V70.6a2.58,2.58,0,0,0-.73-2.07,3.51,3.51,0,0,0-2.3-.62,17.66,17.66,0,0,0-2.12.16L85,66.18a12.61,12.61,0,0,1,2.83-.28,5.62,5.62,0,0,1,3.65,1,4,4,0,0,1,1.22,3.26Z"/><path class="cls-1" d="M101.13,66,101,68.19a3.52,3.52,0,0,1-2,2.9L100.83,74v1.07H93.64V73h4l-4.56-7h2.59L98,69.52a1.53,1.53,0,0,0,.61-.78,4.28,4.28,0,0,0,.14-1.3L98.8,66Z"/><path class="cls-1" d="M104.89,66v9.07h-2.46V66Z"/><path class="cls-1" d="M108.52,67.94a3.86,3.86,0,0,1,3.27-2,3,3,0,0,1,2.54,1.27,7,7,0,0,1,1,4.13v3.77h-4.62V73h2.22V71.18a6.92,6.92,0,0,0-.31-2.5,1.06,1.06,0,0,0-1-.72,1.52,1.52,0,0,0-1.3.85A10.51,10.51,0,0,0,109.3,72l-.54,3.07h-2.54l.42-2a18.78,18.78,0,0,1,.69-2.57L105.8,66H108Z"/><path class="cls-1" d="M121.5,76.83V64.22h1.82V76.83Z"/><path class="cls-1" d="M136.5,75.07h-2.38V70.6a2.58,2.58,0,0,0-.73-2.07,3.51,3.51,0,0,0-2.3-.62,17.66,17.66,0,0,0-2.12.16l-.17-1.89a12.55,12.55,0,0,1,2.83-.28,5.64,5.64,0,0,1,3.65,1,4,4,0,0,1,1.22,3.26Z"/><path class="cls-1" d="M144.64,66v2.33a10.58,10.58,0,0,1-.12,1.88,2.85,2.85,0,0,1-.46,1.11,9,9,0,0,0-.9,1.47,2.18,2.18,0,0,0-.12.77v1.51h-2.38V73.44a3.29,3.29,0,0,1,.2-1.21,7.92,7.92,0,0,1,.94-1.52,2.54,2.54,0,0,0,.44-1.51V68.07h-4.83V62.54h2.38V66Z"/><path class="cls-1" d="M148.43,66v9.07H146V66Z"/><path class="cls-1" d="M156.66,66v2.33a10.58,10.58,0,0,1-.12,1.88,2.85,2.85,0,0,1-.46,1.11,9.82,9.82,0,0,0-.9,1.47,2.18,2.18,0,0,0-.12.77v1.51h-2.37V73.44a3.31,3.31,0,0,1,.19-1.21,8.49,8.49,0,0,1,.94-1.52,2.54,2.54,0,0,0,.44-1.51V68.07h-4.83V62.54h2.38V66Z"/><path class="cls-1" d="M157.52,70.6a4.8,4.8,0,0,1,1.29-3.48,5,5,0,0,1,6.76,0,4.63,4.63,0,0,1,1.31,3.4,4.74,4.74,0,0,1-1.3,3.39,4.38,4.38,0,0,1-3.37,1.39,4.46,4.46,0,0,1-4.69-4.68Zm2.46-.07a3.15,3.15,0,0,0,.62,2,2,2,0,0,0,1.61.76,1.94,1.94,0,0,0,1.6-.76,3.22,3.22,0,0,0,.6-2,3.17,3.17,0,0,0-.6-2,2,2,0,0,0-1.6-.75,1.89,1.89,0,0,0-1.67.82A3.38,3.38,0,0,0,160,70.53Z"/><path class="cls-1" d="M172.7,76.83V64.22h1.82V76.83Z"/><path class="cls-1" d="M189.28,75.07h-8.47V66.18a19.47,19.47,0,0,1,3.34-.28,7.28,7.28,0,0,1,3.2.53,3.25,3.25,0,0,1,1.49,1.41,5.26,5.26,0,0,1,.44,2.33ZM186.88,73V70.31a2.71,2.71,0,0,0-.52-1.81,2.44,2.44,0,0,0-1.91-.61,7,7,0,0,0-1.24.09v5Z"/><path class="cls-1" d="M193.25,66v5.06h-2.47V66Z"/><path class="cls-1" d="M201.74,73h1.64v2.07h-9V73h5V70.6a2.82,2.82,0,0,0-.64-2.1,3.21,3.21,0,0,0-2.21-.61,13.38,13.38,0,0,0-2.07.18l-.17-1.89a12.59,12.59,0,0,1,2.66-.28,5.47,5.47,0,0,1,3.65,1,4.08,4.08,0,0,1,1.18,3.25Z"/><path class="cls-1" d="M206.65,71.86a2,2,0,0,0,.88,1.18,2.76,2.76,0,0,0,1.57.47,2.84,2.84,0,0,0,2.31-1,4.88,4.88,0,0,0,.86-3.14l.25-3.33h2.36l-.3,3.47a9.84,9.84,0,0,1-.7,3.25,4.51,4.51,0,0,1-1.7,1.82,5.44,5.44,0,0,1-3,.77,4.89,4.89,0,0,1-3.82-1.56,6.83,6.83,0,0,1-1.4-4.69l-.1-3.06h2.38l0,2.4.08,1.94a1.8,1.8,0,0,0,1-.29,1.48,1.48,0,0,0,.61-.78,5.73,5.73,0,0,0,.17-1.66l.08-1.61h2.33l-.12,2.24a8.39,8.39,0,0,1-.17,1.36,2.51,2.51,0,0,1-.48,1,2.8,2.8,0,0,1-1.12.84A6,6,0,0,1,206.65,71.86Z"/><path class="cls-1" d="M224.47,75.07h-2.4V70.31a2.71,2.71,0,0,0-.52-1.81,2.44,2.44,0,0,0-1.91-.61,7,7,0,0,0-1.24.09v7.09H216V66.18a19.56,19.56,0,0,1,3.34-.28,7.28,7.28,0,0,1,3.2.53A3.25,3.25,0,0,1,224,67.84a5.26,5.26,0,0,1,.44,2.33Z"/><path class="cls-1" d="M228.09,67.94a3.89,3.89,0,0,1,3.27-2,3,3,0,0,1,2.55,1.27,7,7,0,0,1,1,4.13v3.77h-4.62V73h2.23V71.18a7.16,7.16,0,0,0-.31-2.5,1.06,1.06,0,0,0-1-.72,1.53,1.53,0,0,0-1.31.85,10.58,10.58,0,0,0-.93,3.19l-.54,3.07H225.8l.42-2a17.67,17.67,0,0,1,.68-2.57L225.38,66h2.17Z"/><path class="cls-1" d="M48.36,42.08h7.81l9.67-19.52c-2-1.21-4.17-2.07-6.16-3.31Z"/><path class="cls-1" d="M56.79,43.08h-10L59.28,17.82l.93.58c1,.62,2,1.13,3.11,1.68s2,1,3,1.62l.79.48Zm-6.81-2h5.57l9-18.12c-.69-.38-1.4-.74-2.1-1.09s-1.55-.78-2.33-1.21Z"/><path class="cls-2" d="M76.76,16.07c16.1,14.24,24.12,31.43,17.89,38.4S70.34,55.56,54.24,41.32,30.11,9.9,36.34,2.93,60.65,1.84,76.76,16.07Zm16.42,34.4c5.2-5.84-1.87-20.57-15.81-32.88S47.92,0,42.71,5.86s1.86,20.56,15.81,32.87S88,56.31,93.18,50.47Z"/><path class="cls-1" d="M122.17,17.53a18.55,18.55,0,0,1,4.85.57,8.73,8.73,0,0,1,3.41,1.69,5.51,5.51,0,0,1,1.8,2.85,8.18,8.18,0,0,1,0,4,20,20,0,0,1-2.5,6.07,20.43,20.43,0,0,1-4.48,5.13,21.38,21.38,0,0,1-6.26,3.55,22.41,22.41,0,0,1-7.85,1.32,18.48,18.48,0,0,1-4.82-.57,8.73,8.73,0,0,1-3.44-1.69,5.6,5.6,0,0,1-1.8-2.83,8.26,8.26,0,0,1,0-4,20.47,20.47,0,0,1,7-11.2,21.6,21.6,0,0,1,6.26-3.55A22.39,22.39,0,0,1,122.17,17.53Zm-1.73,4.8a8.85,8.85,0,0,0-2.92.47,10.69,10.69,0,0,0-2.6,1.29A13.48,13.48,0,0,0,112.71,26a17.17,17.17,0,0,0-3.15,4.9,14.8,14.8,0,0,0-.84,2.57,3.63,3.63,0,0,0,.49,3.23c.64.8,1.85,1.19,3.62,1.19a8.89,8.89,0,0,0,2.92-.47,10.38,10.38,0,0,0,2.6-1.3,13,13,0,0,0,2.23-1.91,15.59,15.59,0,0,0,1.79-2.34,18,18,0,0,0,1.34-2.57,15.48,15.48,0,0,0,.84-2.58,3.59,3.59,0,0,0-.51-3.22C123.39,22.72,122.19,22.33,120.44,22.33Z"/><path class="cls-1" d="M111.09,43.7a19.17,19.17,0,0,1-5.08-.61,9.69,9.69,0,0,1-3.83-1.89,6.57,6.57,0,0,1-2.11-3.33,9.21,9.21,0,0,1,0-4.49A21.28,21.28,0,0,1,102.73,27a21.52,21.52,0,0,1,4.7-5.38A22.62,22.62,0,0,1,114,17.91a23.66,23.66,0,0,1,8.19-1.38,19.69,19.69,0,0,1,5.11.6,9.84,9.84,0,0,1,3.8,1.9,6.55,6.55,0,0,1,2.12,3.34,9.31,9.31,0,0,1,0,4.48,21.25,21.25,0,0,1-2.62,6.37,21.7,21.7,0,0,1-4.7,5.38,22.31,22.31,0,0,1-6.55,3.71A23.52,23.52,0,0,1,111.09,43.7Zm11.08-25.17a21.46,21.46,0,0,0-7.5,1.26,20.43,20.43,0,0,0-6,3.38,19.66,19.66,0,0,0-6.65,10.65,7.52,7.52,0,0,0-.06,3.52,4.49,4.49,0,0,0,1.49,2.33,7.77,7.77,0,0,0,3,1.49,17.39,17.39,0,0,0,4.56.54,21.42,21.42,0,0,0,7.5-1.26,20.61,20.61,0,0,0,6-3.38,19.82,19.82,0,0,0,4.26-4.89,19,19,0,0,0,2.38-5.76,7.22,7.22,0,0,0,.06-3.51,4.5,4.5,0,0,0-1.48-2.34,7.73,7.73,0,0,0-3-1.5A17.79,17.79,0,0,0,122.17,18.53ZM112.83,38.9c-2.11,0-3.55-.51-4.4-1.56a4.6,4.6,0,0,1-.69-4.09,17.07,17.07,0,0,1,.9-2.73A18.16,18.16,0,0,1,112,25.33a13.86,13.86,0,0,1,2.37-2.06,11.68,11.68,0,0,1,2.85-1.42,10,10,0,0,1,3.24-.52c2.06,0,3.53.52,4.37,1.55a4.56,4.56,0,0,1,.72,4.07,17.61,17.61,0,0,1-.9,2.75,20,20,0,0,1-1.41,2.71,17.13,17.13,0,0,1-1.91,2.49,14.61,14.61,0,0,1-2.4,2.06,11.44,11.44,0,0,1-2.84,1.42A10,10,0,0,1,112.83,38.9Zm7.61-15.57a8.28,8.28,0,0,0-2.6.41,10,10,0,0,0-2.36,1.18,11.88,11.88,0,0,0-2,1.77,16.26,16.26,0,0,0-1.7,2.19,17.49,17.49,0,0,0-1.27,2.42,14.94,14.94,0,0,0-.79,2.4,2.69,2.69,0,0,0,.3,2.38c.43.54,1.41.82,2.84.82a8.23,8.23,0,0,0,2.6-.41,9.77,9.77,0,0,0,2.35-1.18,12,12,0,0,0,2.07-1.77,14.74,14.74,0,0,0,1.67-2.19,17,17,0,0,0,1.27-2.43,14.33,14.33,0,0,0,.78-2.41,2.65,2.65,0,0,0-.3-2.36C122.83,23.61,121.85,23.33,120.44,23.33Z"/><path class="cls-1" d="M159.14,23.14a14.46,14.46,0,0,0-2.6-.24,15.15,15.15,0,0,0-2.38.19,13.06,13.06,0,0,0-2.45.65,12.79,12.79,0,0,0-2.38,1.17,10.4,10.4,0,0,0-2.14,1.82,12.4,12.4,0,0,0-1,1.26A17.74,17.74,0,0,0,145.07,30l-6,12h-7.55l11.89-24h6.43l-.69,3h.13A19,19,0,0,1,154,18.48a15.17,15.17,0,0,1,5.47-.95,20.31,20.31,0,0,1,2.43.15Z"/><path class="cls-1" d="M139.71,43.08h-9.78l12.88-26h8.31L150.69,19a19.61,19.61,0,0,1,2.91-1.43,16.12,16.12,0,0,1,5.83-1,19.84,19.84,0,0,1,2.55.16l1.4.17-3.68,7.4-.74-.13a13.14,13.14,0,0,0-4.64-.05,12.1,12.1,0,0,0-2.27.6,11.67,11.67,0,0,0-2.19,1.08,9.55,9.55,0,0,0-1.93,1.64,13,13,0,0,0-.89,1.15A18.4,18.4,0,0,0,146,30.48Zm-6.56-2h5.32l5.7-11.48a19.39,19.39,0,0,1,1.22-2.17,12.15,12.15,0,0,1,1.06-1.37,11.34,11.34,0,0,1,2.35-2A14,14,0,0,1,154,22.11a14.87,14.87,0,0,1,4.56-.07l1.74-3.49a14.84,14.84,0,0,0-6,.87,17.87,17.87,0,0,0-4.41,2.51l-.27.21h-1.72l.69-3h-4.56Z"/><path class="cls-1" d="M168,18.12h7.71l.45,10.51q.14,3.47.08,6.36h.2q2.44-2.88,5.33-6l10.12-10.86h8.54L176.58,42.9q-2.39,2.46-4.7,4.55A30.92,30.92,0,0,1,167.06,51a24.59,24.59,0,0,1-5.33,2.34,21.47,21.47,0,0,1-6.15.84,19.07,19.07,0,0,1-4-.33L154,49.23a17.45,17.45,0,0,0,2.42.17,11.78,11.78,0,0,0,3.42-.48A13.68,13.68,0,0,0,163,47.47a21.51,21.51,0,0,0,3.12-2.41q1.57-1.45,3.4-3.4Z"/><path class="cls-1" d="M155.58,55.2a20.34,20.34,0,0,1-4.16-.35l-1.26-.27,3.24-6.44.71.1a12.9,12.9,0,0,0,5.41-.28,12.63,12.63,0,0,0,2.91-1.34,20.47,20.47,0,0,0,3-2.3c.94-.87,2-1.88,3-3l-1.51-24.17h9.73l.49,11.47c.05,1.41.08,2.71.09,3.92,1.19-1.35,2.45-2.76,3.79-4.21l10.41-11.18h11.33L177.3,43.59c-1.58,1.65-3.18,3.19-4.75,4.6a31.87,31.87,0,0,1-5,3.69A25.14,25.14,0,0,1,162,54.31,22.43,22.43,0,0,1,155.58,55.2Zm-2.44-2.11c.71.07,1.52.11,2.44.11a20.5,20.5,0,0,0,5.86-.8,23.26,23.26,0,0,0,5.11-2.24,29.41,29.41,0,0,0,4.66-3.46c1.53-1.37,3.1-2.89,4.65-4.5l22.21-23.08h-5.75L182.5,29.66c-1.92,2.09-3.7,4.1-5.3,6l-.3.36h-1.67V35c0-1.85,0-3.91-.08-6.3l-.41-9.55h-5.68L170.5,42l-.29.31c-1.22,1.31-2.38,2.47-3.45,3.46a23.26,23.26,0,0,1-3.28,2.52,13.82,13.82,0,0,1-3.38,1.55,14.51,14.51,0,0,1-5.55.44Z"/><path class="cls-1" d="M80.34,18.12l.38,9.13c.13,2.88.15,5.49.08,7.81H81q3.19-3.9,6.83-7.66l8.9-9.28h8.54l-23.92,24H74.4l-1.67-24Z"/><path class="cls-1" d="M81.75,43.08H73.46l-1.8-26H81.3l.42,10.08c.08,1.86.12,3.63.12,5.28,1.67-2,3.43-3.9,5.26-5.78l9.18-9.58h11.38Zm-6.42-2h5.59l21.92-22h-5.7l-8.6,9c-2.39,2.47-4.67,5-6.78,7.6l-.3.37h-1.7l0-1c.07-2.31,0-4.91-.08-7.74l-.34-8.17H73.8Z"/><path class="cls-1" d="M64.77,9,59.68,19.25c2,1.24,4.16,2.1,6.16,3.31L72.57,9Z"/><path class="cls-1" d="M66.26,24l-.93-.56c-.93-.57-1.93-1.07-2.9-1.55s-2.2-1.1-3.27-1.77l-.78-.48L64.15,8h10ZM61,18.86c.75.43,1.53.82,2.33,1.22s1.4.7,2.1,1.08L71,10H65.39Z"/></g></g></svg>